<svg width="36" height="36" viewBox="0 0 36 36" fill="none" xmlns="http://www.w3.org/2000/svg">
<path d="M35.5 3.07353V32.9265C35.5 33.609 35.2289 34.2636 34.7462 34.7462C34.2636 35.2289 33.609 35.5 32.9265 35.5H3.07353C2.39099 35.5 1.7364 35.2289 1.25377 34.7462C0.771139 34.2636 0.5 33.609 0.5 32.9265L0.5 3.07353C0.5 2.39099 0.771139 1.7364 1.25377 1.25377C1.7364 0.771139 2.39099 0.5 3.07353 0.5L32.9265 0.5C33.609 0.5 34.2636 0.771139 34.7462 1.25377C35.2289 1.7364 35.5 2.39099 35.5 3.07353ZM10.7941 13.8824H5.64706V30.3529H10.7941V13.8824ZM11.2574 8.22059C11.2601 7.83125 11.1861 7.4452 11.0396 7.08447C10.8931 6.72373 10.677 6.39539 10.4036 6.11817C10.1302 5.84096 9.80489 5.62031 9.44622 5.46883C9.08756 5.31734 8.70257 5.23799 8.31324 5.23529H8.22059C7.42884 5.23529 6.66952 5.54982 6.10967 6.10967C5.54982 6.66952 5.23529 7.42884 5.23529 8.22059C5.23529 9.01234 5.54982 9.77166 6.10967 10.3315C6.66952 10.8914 7.42884 11.2059 8.22059 11.2059C8.60995 11.2155 8.99738 11.1482 9.36075 11.008C9.72411 10.8678 10.0563 10.6574 10.3383 10.3888C10.6203 10.1201 10.8466 9.79856 11.0043 9.44244C11.162 9.08631 11.248 8.7026 11.2574 8.31324V8.22059ZM30.3529 20.3471C30.3529 15.3956 27.2029 13.4706 24.0735 13.4706C23.0489 13.4193 22.0287 13.6375 21.1148 14.1035C20.2008 14.5695 19.425 15.2671 18.8647 16.1265H18.7206V13.8824H13.8824V30.3529H19.0294V21.5926C18.955 20.6954 19.2376 19.8051 19.8159 19.1151C20.3941 18.4251 21.2213 17.991 22.1176 17.9074H22.3132C23.95 17.9074 25.1647 18.9368 25.1647 21.5309V30.3529H30.3118L30.3529 20.3471Z" fill="black"/>
</svg>
