<svg width="35" height="35" viewBox="0 0 35 35" fill="none" xmlns="http://www.w3.org/2000/svg">
<path fill-rule="evenodd" clip-rule="evenodd" d="M11.1396 11.1396C12.8265 9.45269 15.1144 8.505 17.5 8.505C19.8856 8.505 22.1735 9.45269 23.8604 11.1396C25.5473 12.8265 26.495 15.1144 26.495 17.5C26.495 19.8856 25.5473 22.1735 23.8604 23.8604C22.1735 25.5473 19.8856 26.495 17.5 26.495C15.1144 26.495 12.8265 25.5473 11.1396 23.8604C9.45269 22.1735 8.505 19.8856 8.505 17.5C8.505 15.1144 9.45269 12.8265 11.1396 11.1396ZM15.2654 22.8947C15.9739 23.1881 16.7332 23.3392 17.5 23.3392C19.0486 23.3392 20.5339 22.724 21.6289 21.6289C22.724 20.5339 23.3392 19.0486 23.3392 17.5C23.3392 15.9514 22.724 14.4661 21.6289 13.3711C20.5339 12.276 19.0486 11.6608 17.5 11.6608C16.7332 11.6608 15.9739 11.8119 15.2654 12.1053C14.557 12.3988 13.9133 12.8289 13.3711 13.3711C12.8289 13.9133 12.3988 14.557 12.1053 15.2655C11.8119 15.9739 11.6608 16.7332 11.6608 17.5C11.6608 18.2668 11.8119 19.0261 12.1053 19.7346C12.3988 20.443 12.8289 21.0867 13.3711 21.6289C13.9133 22.1711 14.557 22.6012 15.2654 22.8947Z" fill="black"/>
<path d="M28.4891 9.84516C28.8878 9.44641 29.1118 8.90559 29.1118 8.34167C29.1118 7.77776 28.8878 7.23694 28.4891 6.83819C28.0903 6.43944 27.5495 6.21542 26.9856 6.21542C26.4217 6.21542 25.8808 6.43944 25.4821 6.83819C25.0833 7.23694 24.8593 7.77776 24.8593 8.34167C24.8593 8.90559 25.0833 9.44641 25.4821 9.84516C25.8808 10.2439 26.4217 10.4679 26.9856 10.4679C27.5495 10.4679 28.0903 10.2439 28.4891 9.84516Z" fill="black"/>
<path fill-rule="evenodd" clip-rule="evenodd" d="M10.2853 0.105C12.152 0.0198334 12.747 0 17.5 0C22.2542 0 22.848 0.0209998 24.7135 0.105C26.5767 0.190167 27.8507 0.487667 28.9637 0.918166C30.1309 1.35783 31.1883 2.04659 32.0623 2.9365C32.9525 3.81071 33.6413 4.86857 34.0807 6.03633C34.5135 7.14933 34.8098 8.42217 34.895 10.2853C34.9802 12.152 35 12.747 35 17.5C35 22.253 34.9802 22.848 34.895 24.7147C34.8098 26.5778 34.5135 27.8507 34.0818 28.9637C33.6422 30.1309 32.9534 31.1883 32.0635 32.0623C31.1885 32.9537 30.1303 33.642 28.9637 34.0807C27.8507 34.5135 26.5778 34.8098 24.7147 34.895C22.848 34.9802 22.253 35 17.5 35C12.747 35 12.152 34.9802 10.2853 34.895C8.42217 34.8098 7.14933 34.5135 6.03633 34.0818C4.86909 33.6421 3.81168 32.9534 2.93767 32.0635C2.04633 31.1885 1.358 30.1303 0.919333 28.9637C0.4865 27.8507 0.190167 26.5778 0.105 24.7147C0.0198334 22.848 0 22.2542 0 17.5C0 12.7458 0.0209998 12.152 0.105 10.2865C0.190167 8.42333 0.487667 7.14933 0.918166 6.03633C1.35783 4.86908 2.04659 3.81166 2.9365 2.93767C3.8115 2.04633 4.86967 1.358 6.03633 0.919333C7.14933 0.4865 8.42217 0.190167 10.2853 0.105ZM24.5723 3.255C22.7267 3.171 22.1725 3.1535 17.5 3.1535C12.8275 3.1535 12.2733 3.171 10.4277 3.255C8.722 3.33317 7.79567 3.61783 7.1785 3.85817C6.41831 4.13814 5.7306 4.58505 5.166 5.166C4.55467 5.7785 4.17433 6.36183 3.85817 7.1785C3.61667 7.79567 3.33317 8.722 3.255 10.4277C3.171 12.2733 3.1535 12.8275 3.1535 17.5C3.1535 22.1725 3.171 22.7267 3.255 24.5723C3.33317 26.278 3.61783 27.2043 3.85817 27.8215C4.13832 28.5816 4.58521 29.2693 5.166 29.834C5.73067 30.4149 6.41836 30.8618 7.1785 31.1418C7.79567 31.3833 8.722 31.6668 10.4277 31.745C12.2733 31.829 12.8263 31.8465 17.5 31.8465C22.1737 31.8465 22.7267 31.829 24.5723 31.745C26.278 31.6668 27.2043 31.3822 27.8215 31.1418C28.5817 30.8619 29.2694 30.415 29.834 29.834C30.4149 29.2693 30.8618 28.5816 31.1418 27.8215C31.3833 27.2043 31.6668 26.278 31.745 24.5723C31.829 22.7267 31.8465 22.1725 31.8465 17.5C31.8465 12.8275 31.829 12.2733 31.745 10.4277C31.6668 8.722 31.3822 7.79567 31.1418 7.1785C30.8257 6.36183 30.4465 5.7785 29.834 5.166C29.2215 4.55467 28.6382 4.17433 27.8215 3.85817C27.2043 3.61667 26.278 3.33317 24.5723 3.255Z" fill="black"/>
</svg>
